<svg xmlns="http://www.w3.org/2000/svg" width="394" height="80" viewBox="0 0 394 80">
    <g fill="none" fill-rule="evenodd">
        <g fill="#FEFEFE">
            <path d="M393.744 67.267c.146.821-.168 1.424-.937 1.81-.627.288-1.363.53-2.204.723-.843.193-1.71.348-2.6.47a35.426 35.426 0 0 1-4.588.326c-2.12 0-3.767-.303-4.947-.905-1.18-.603-2.058-1.435-2.636-2.495-.577-1.061-.939-2.291-1.083-3.69a42.886 42.886 0 0 1-.217-4.413v-18.16h-3.612c-.53 0-.89-.107-1.083-.325-.193-.217-.29-.566-.29-1.05v-3.544c0-.481.097-.843.29-1.085.193-.241.553-.362 1.083-.362h3.685v-7.45c0-.531.131-.906.397-1.121.264-.217.589-.373.975-.471l4.839-1.302c.963-.24 1.445.049 1.445.868v9.477h7.728c.577 0 .95.121 1.12.362.168.241.253.578.253 1.012v3.618c0 .482-.085.831-.253 1.05-.17.216-.543.324-1.12.324h-7.728v18.014c0 .966.071 1.713.217 2.243.145.531.397.93.759 1.194.359.265.853.422 1.48.47a32.1 32.1 0 0 0 2.384.072c.529 0 1.287-.024 2.274-.072.986-.048 1.843-.12 2.564-.217.385-.048.676 0 .868.144.192.145.336.434.432.868l.505 3.617zM362.76 68.642c0 .386-.085.713-.254.977-.169.266-.518.397-1.047.397h-5.128c-.964 0-1.446-.458-1.446-1.374v-32.7c0-.916.482-1.374 1.446-1.374h5.128c.53 0 .878.133 1.047.397.169.265.253.592.253.977v32.7zm.433-43.48c0 .58-.049 1.122-.145 1.629a2.98 2.98 0 0 1-.614 1.338c-.314.387-.747.687-1.3.904-.554.217-1.289.326-2.203.326-.964 0-1.722-.12-2.275-.362-.554-.241-.975-.555-1.264-.94a3.2 3.2 0 0 1-.578-1.34 8.264 8.264 0 0 1-.144-1.555c0-1.157.276-2.134.83-2.929.553-.796 1.698-1.194 3.431-1.194 1.781 0 2.937.374 3.468 1.122.528.748.794 1.749.794 3.001zM326.16 49.287h.342l10.91-27.046h11.729v1.844l-20.252 46.51h-5.183l-20.456-46.51V22.24h11.728zM299.766 33.168h-17.66v6.762h16.229v10.859h-16.23v8.4h18.275v10.86h-30.413V22.24h29.799v10.927"/>
            <path d="M235.667 58.916h5.796c15.205 0 15.205-25.543 0-25.543h-5.796v25.543zm5.796 11.132H223.46V22.242h18.002c31.093.135 31.093 47.67 0 47.806z"/>
        </g>
        <path fill="#FFF" fill-rule="nonzero" d="M190 12h4v68h-4z"/>
        <g fill="#FEFEFE">
            <path d="M59.791 58.81c1.24-11.805 3.916-24.265 8.027-37.375-5.042 14.49-7.717 26.95-8.027 37.376zM33.036 38.457c1.164-4.37 2.037-8.529 2.618-12.478.581-3.948.948-7.648 1.105-11.098-.776 7.515-2.172 15.372-4.188 23.576h.465zm-.115 9.315c.386-1.073.6-1.82.639-2.243.038-.42.058-.823.058-1.208-.156 0-.427.806-.814 2.415A66.31 66.31 0 0 1 30.36 54.5c-1.009 2.644-2.288 5.002-3.84 7.072.078-.153.194-.306.35-.46.154-.153.291-.306.408-.46l.523-.69c.309-.306.93-1.283 1.861-2.933.93-1.647 2.016-4.732 3.258-9.257zm-1.978-3.45a220.957 220.957 0 0 1-3.432 10.062 110.665 110.665 0 0 1-4.13 9.717c3.49-5.673 6.204-12.265 8.143-19.78h-.581zm-8.492 4.255c.387 1.687.698 3.26.93 4.715a28.34 28.34 0 0 1 .35 4.484 85.856 85.856 0 0 0 2.733-6.784c.815-2.3 1.61-4.638 2.385-7.016a12.204 12.204 0 0 0-1.687-.345 13.99 13.99 0 0 0-1.803-.114c-2.172 0-3.257.92-3.257 2.76 0 .384.038.787.116 1.207.077.423.155.787.233 1.093zM3.141 34.66a7.037 7.037 0 0 1-.582-2.76c0-2.376 1.007-5.366 3.025-8.97-2.56 3.45-3.84 6.249-3.84 8.395 0 1.457.466 2.569 1.397 3.335zM72.47 3.036a6.257 6.257 0 0 1 1.803 2.3c.425.92.716 1.725.873 2.414-1.164 2.225-2.521 5.52-4.072 9.89-1.552 4.37-3.044 9.258-4.478 14.663-1.436 5.405-2.658 11.08-3.664 17.02-1.01 5.942-1.513 11.558-1.513 16.848 0 .844.038 1.743.116 2.703.077.957.213 1.877.407 2.76.193.88.484 1.627.873 2.242.387.612.89 1.035 1.512 1.265.388.152.756.325 1.105.517.35.19.524.518.524.977 0 .613-.465 1.131-1.396 1.553-.93.42-2.094.632-3.49.632-1.163 0-2.366-.191-3.606-.574-1.242-.384-2.385-1.036-3.432-1.956-1.046-.919-1.901-2.166-2.559-3.737-.66-1.572-.988-3.547-.988-5.922 0-1.61.096-3.469.29-5.577.193-2.11.426-4.178.698-6.21.271-2.031.542-3.871.814-5.522.271-1.647.524-2.778.757-3.391-1.629.23-3.22.345-4.77.345-1.474 0-2.948-.076-4.42-.23a304.49 304.49 0 0 1-4.187-.466c-.544 1.69-1.379 4.145-2.502 7.366a71.52 71.52 0 0 1-4.187 9.602c-1.67 3.182-3.588 5.96-5.759 8.338-2.172 2.375-4.536 3.565-7.095 3.565-.39 0-.873-.078-1.455-.23a8.39 8.39 0 0 1-1.744-.69 5.097 5.097 0 0 1-1.513-1.208c-.427-.5-.64-1.092-.64-1.782 0-.46.135-.806.408-1.036.27-.23.561-.384.872-.459.698-.154 1.24-.673 1.629-1.553.387-.88.678-1.878.872-2.99.193-1.11.33-2.185.407-3.22.076-1.035.116-1.782.116-2.243 0-1.15-.116-2.28-.348-3.392a186.84 186.84 0 0 1-.699-3.508 160.898 160.898 0 0 1-.697-3.966c-.233-1.419-.35-3.022-.35-4.808 0-2.017.446-3.57 1.338-4.659.891-1.087 2.423-1.632 4.595-1.632 1.318 0 2.597.077 3.84.23 1.238.155 2.518.307 3.838.46l.349-1.374a243.949 243.949 0 0 0 3.14-11.515c.931-3.78 1.396-7.963 1.396-12.547 0-1.528-.174-2.922-.523-4.183-.349-1.26-1.067-1.89-2.152-1.89-1.164 0-2.405.479-3.722 1.437-1.32.96-2.716 2.282-4.188 3.967-1.474 1.687-3.006 3.643-4.595 5.865-1.59 2.225-3.24 4.64-4.943 7.245a58.584 58.584 0 0 0-2.85 4.83 20.399 20.399 0 0 0-1.92 5.176c-.157.92-.273 1.42-.349 1.495-.079.077-.117.192-.117.345 0 .69.096 1.092.291 1.207.193.115.291.48.291 1.092 0 .077-.078.23-.233.46-.156.23-.388.346-.698.346-.078 0-.136-.038-.174-.116-.04-.075-.098-.114-.174-.114-.08 0-.157.039-.233.114v.116c0 .077-.466-.038-1.396-.345-.93-.306-1.978-.806-3.141-1.495a14.53 14.53 0 0 1-3.2-2.588C.484 34.258 0 33.013 0 31.555c0-1.685.483-3.43 1.454-5.232.969-1.8 2.17-3.565 3.606-5.29a47.653 47.653 0 0 1 4.77-4.945c1.744-1.57 3.391-2.97 4.943-4.198a80.557 80.557 0 0 1 4.072-2.99 56.602 56.602 0 0 1 4.944-3.047 33.008 33.008 0 0 1 5.35-2.358c1.822-.613 3.625-.92 5.41-.92 1.937 0 3.566.403 4.885 1.208 1.318.805 2.385 1.897 3.2 3.278.814 1.38 1.395 2.99 1.745 4.83.349 1.84.523 3.794.523 5.865 0 3.45-.35 7.034-1.047 10.752a159.658 159.658 0 0 1-2.327 10.523c.62.077 1.202.115 1.745.115h1.745c1.705 0 3.374-.096 5.002-.288a28.298 28.298 0 0 0 4.77-.977c1.55-5.52 3.12-11.04 4.71-16.56 1.59-5.52 3.392-11.001 5.41-16.446l.93-2.53c0-.383.271-.728.814-1.035.542-.305.853-.42.931-.345.31 0 .465-.075.465-.23.233.385.542.575.931.575.387 0 .698.155.93.46 0 .308.156.46.466.46.466.078.774.307.93.69.155.385.233.805.233 1.265 0 .46.019.94.059 1.438.038.5.174.863.407 1.092v-.46c.076-.305.174-.747.291-1.322a9.613 9.613 0 0 0 .174-1.897z"/>
            <path d="M92.827 50.186c.465-1.533.872-2.95 1.221-4.255.35-1.303.524-2.186.524-2.645 0-.076.018-.116.058-.116.038 0 .058-.038.058-.114v-.115c-.078 0-.214.097-.406.287-.195.192-.37.594-.525 1.208-.697 2.76-1.319 5.252-1.86 7.475-.466 1.917-.893 3.662-1.28 5.232-.39 1.573-.544 2.435-.465 2.588.232-.996.64-2.433 1.22-4.313a86.126 86.126 0 0 0 1.455-5.232zm-11.4-16.1c-.156 0-.698.422-1.628 1.265-.931.844-1.707 1.649-2.327 2.414 0 .077-.137.308-.407.691a17.53 17.53 0 0 0-.814 1.265c-.273.459-.524.882-.756 1.264-.233.385-.311.575-.233.575-.232 0 .29-.67 1.57-2.012 1.28-1.34 2.656-3.008 4.13-5.002l.465-.46zm4.653 12.88c.233-.536.445-1.226.64-2.07.192-.843.387-1.743.582-2.703.193-.958.328-1.898.407-2.817.076-.92.116-1.725.116-2.416 0-1.072-.232-1.61-.698-1.61-.622 0-1.358.557-2.21 1.668-.855 1.112-1.745 2.53-2.676 4.255a81.367 81.367 0 0 0-2.791 5.75c-.93 2.11-1.766 4.14-2.502 6.095a71.589 71.589 0 0 0-1.802 5.347c-.466 1.611-.699 2.8-.699 3.565 0 .538.117.806.35.806.309 0 1.143-.593 2.5-1.783 1.356-1.187 2.753-2.568 4.188-4.14a90.502 90.502 0 0 0 3.897-4.542c1.163-1.456 1.745-2.415 1.745-2.875-.233-.153-.505-.403-.814-.748-.311-.345-.465-.708-.465-1.093 0-.152.076-.382.232-.69zm-12.214-5.98c.309-.536.756-1.284 1.338-2.243a69.238 69.238 0 0 1 1.803-2.818c.62-.92 1.181-1.724 1.687-2.415.503-.69.832-1.035.988-1.035l-2.152 2.128a21.524 21.524 0 0 0-2.268 2.645c-.698.96-1.3 1.995-1.803 3.104a9.7 9.7 0 0 0-.872 3.393c.076-.075.27-.477.58-1.207.31-.728.543-1.245.7-1.553zm32.571 4.14a23.54 23.54 0 0 1 2.152-1.726c.658-.46 1.182-.69 1.57-.69.388 0 .582.192.582.576 0 .154-.252.767-.756 1.84a546.647 546.647 0 0 1-1.92 4.024 117.133 117.133 0 0 1-2.733 5.29 239.732 239.732 0 0 1-3.14 5.578 52.783 52.783 0 0 1-3.141 4.83c-1.048 1.42-1.998 2.472-2.85 3.162a5.393 5.393 0 0 1-1.63.806 5.594 5.594 0 0 1-1.511.23 6.67 6.67 0 0 1-2.094-.345l-.466-.23c-1.552-.46-2.753-1.322-3.606-2.587-.854-1.265-1.435-2.778-1.744-4.544-1.396 1.61-3.065 3.203-5.002 4.774-1.94 1.572-3.956 2.471-6.05 2.702-1.474 0-2.715-.385-3.722-1.15a9.688 9.688 0 0 1-2.501-2.818 11.829 11.829 0 0 1-1.396-3.508c-.272-1.225-.407-2.26-.407-3.104 0-3.295.524-6.728 1.57-10.293 1.047-3.565 2.443-6.822 4.189-9.775 1.744-2.95 3.74-5.386 5.99-7.303 2.248-1.915 4.537-2.875 6.863-2.875 1.007 0 2.055.193 3.14.576a9.283 9.283 0 0 1 2.968 1.724c.89.768 1.666 1.726 2.326 2.875.658 1.15 1.105 2.492 1.338 4.025 1.085.384 2.228 1.093 3.431 2.128 1.201 1.034 1.803 2.167 1.803 3.393 0 .307-.078.69-.232 1.15a57.884 57.884 0 0 0-3.897 9.545c-1.048 3.375-1.57 6.517-1.57 9.43 1.239-1.073 2.423-2.415 3.547-4.025a61.084 61.084 0 0 0 3.141-5.003 139.241 139.241 0 0 1 2.908-4.945c.97-1.57 1.92-2.817 2.85-3.737z"/>
            <path d="M110.973 44.206c.154-.23.425-.613.814-1.15.387-.536.815-1.13 1.28-1.783.465-.65.93-1.283 1.396-1.897.465-.613.89-1.111 1.28-1.495-.931.69-1.745 1.419-2.444 2.185a10.723 10.723 0 0 0-1.628 2.07c-.465.767-.698 1.457-.698 2.07m-2.676 1.38a28.139 28.139 0 0 1 .815-1.84c.232-.614.716-1.475 1.453-2.588a68.357 68.357 0 0 1 2.27-3.22 51.207 51.207 0 0 1 2.151-2.703c.658-.765 1.027-1.15 1.105-1.15l-1.046.805c-2.25 1.995-4.034 4.16-5.351 6.498-1.32 2.34-1.978 4.16-1.978 5.463.076 0 .154-.076.232-.23.077-.23.193-.575.35-1.036m25.824-.345c1.937-1.61 3.179-2.415 3.722-2.415.232 0 .35.155.35.46 0 .385-.137.845-.408 1.38a62.51 62.51 0 0 0-.989 2.07l-1.396 2.53a131.847 131.847 0 0 1-3.78 6.728c-1.358 2.262-2.832 4.313-4.42 6.153-1.591 1.84-3.336 3.354-5.235 4.542-1.902 1.19-4.013 1.782-6.34 1.782-2.018 0-3.82-.326-5.41-.977-1.59-.65-2.965-1.513-4.129-2.587-1.163-1.074-2.056-2.3-2.675-3.68-.622-1.38-.93-2.76-.93-4.14 0-2.606.599-5.578 1.802-8.913a43.16 43.16 0 0 1 4.77-9.43c1.977-2.95 4.225-5.423 6.747-7.417 2.519-1.994 5.097-2.99 7.735-2.99 1.783 0 3.49.632 5.119 1.897 1.628 1.265 2.442 2.78 2.442 4.543 0 .537-.232 1.476-.698 2.817-.465 1.342-1.104 2.703-1.919 4.082a19.247 19.247 0 0 1-2.792 3.68c-1.047 1.075-2.113 1.61-3.199 1.61-.93 0-1.396-.42-1.396-1.264 0-.306.116-.65.35-1.036.851-1.533 1.55-2.97 2.093-4.312.542-1.34.814-2.395.814-3.162 0-.92-.31-1.38-.93-1.38-.698 0-1.532.537-2.501 1.61-.97 1.074-1.96 2.377-2.966 3.909a53.058 53.058 0 0 0-2.793 4.773c-.854 1.65-1.473 3.087-1.86 4.313-.698 2.07-1.048 3.95-1.048 5.634 0 1.765.387 3.202 1.164 4.313.774 1.113 2.054 1.667 3.838 1.667 2.094 0 4.013-.747 5.759-2.242a28.865 28.865 0 0 0 4.71-5.175 78.43 78.43 0 0 0 3.723-5.692c1.085-1.84 1.978-3.066 2.676-3.68"/>
            <path d="M152.5 68.356c.31.305.542.46.699.46 0-.077-.234-.345-.699-.806l-1.047-1.034c-.232-.305-.601-.88-1.105-1.726a293.436 293.436 0 0 0-1.57-2.587 62.275 62.275 0 0 1-1.861-3.277c0 .92.212 1.84.64 2.76.425.92.93 1.802 1.512 2.645a13.116 13.116 0 0 0 1.861 2.185 26.599 26.599 0 0 0 1.57 1.38m3.258-34.5c-.157-.153-.311-.23-.466-.23-.465 0-1.203.384-2.21 1.15-1.01.767-2.114 1.744-3.316 2.932a53.11 53.11 0 0 0-3.605 3.967c-1.204 1.458-2.193 2.838-2.967 4.14 1.163-.075 2.461-.65 3.897-1.724a35.309 35.309 0 0 0 4.072-3.565c1.28-1.303 2.364-2.589 3.257-3.853.89-1.265 1.338-2.203 1.338-2.817m-22.335 15.41c.852-4.293 2.054-8.93 3.606-13.916 1.55-4.983 3.412-10.502 5.584-16.56-2.405 5.52-4.403 10.888-5.991 16.1-1.59 5.215-2.657 10.005-3.2 14.376m28.036 21.62c1.628 0 2.443.46 2.443 1.38-1.088 1.226-2.095 2.185-3.025 2.875-.931.69-1.998 1.322-3.199 1.897-1.203.576-2.425.863-3.664.863-2.094 0-3.976-.902-5.643-2.703-1.668-1.802-3.102-4.025-4.303-6.67a56.573 56.573 0 0 1-3.025-8.395c-.814-2.95-1.454-5.615-1.92-7.993a43.456 43.456 0 0 0-.871 4.658 32.575 32.575 0 0 0-.291 4.198c0 1.074.116 2.185.348 3.335.233 1.15.35 2.07.35 2.76 0 .995-.35 1.495-1.047 1.495-.39 0-.776-.135-1.164-.403-.389-.27-.738-.708-1.047-1.322-1.551-.535-2.637-1.686-3.257-3.45-.621-1.763-.93-3.91-.93-6.44 0-3.143.35-6.573 1.047-10.293a113.105 113.105 0 0 1 2.733-11.27 153.437 153.437 0 0 1 3.723-11.04c1.356-3.565 2.675-6.728 3.955-9.487 1.28-2.76 2.443-4.964 3.49-6.613 1.047-1.648 1.841-2.473 2.384-2.473.542 0 1.085.27 1.629.805.541.537 1.047 1.208 1.512 2.013.465.805.832 1.65 1.105 2.53.271.883.408 1.707.408 2.473 0 .384-.079.804-.234 1.265-1.784 4.14-3.49 8.165-5.118 12.074a385.188 385.188 0 0 0-4.537 11.385 124.841 124.841 0 0 1 3.258-3.795 43.162 43.162 0 0 1 3.49-3.507c1.163-1.035 2.306-1.878 3.43-2.53 1.125-.65 2.153-.978 3.084-.978 1.783 0 3.237.652 4.362 1.955 1.123 1.305 1.687 2.915 1.687 4.83 0 1.38-.447 2.933-1.338 4.658-.893 1.725-2.134 3.393-3.723 5.003-1.59 1.609-3.49 3.03-5.7 4.254a19.308 19.308 0 0 1-7.154 2.3c.775 2.838 1.746 5.483 2.908 7.935 1.164 2.455 2.462 4.6 3.898 6.441 1.434 1.84 2.984 3.295 4.652 4.37 1.667 1.072 3.433 1.61 5.294 1.61"/>
        </g>
    </g>
</svg>
